<?xml version="1.0" standalone="no"?>
<!DOCTYPE svg PUBLIC "-//W3C//DTD SVG 20010904//EN"
 "http://www.w3.org/TR/2001/REC-SVG-20010904/DTD/svg10.dtd">
<svg version="1.0" xmlns="http://www.w3.org/2000/svg"
 width="4726.000000pt" height="5344.000000pt" viewBox="0 0 4726.000000 5344.000000"
 preserveAspectRatio="xMidYMid meet">

<g transform="translate(0.000000,5344.000000) scale(0.100000,-0.100000)"
fill="#000000" stroke="none">
<path d="M40207 45323 c-4 -3 -7 -2560 -7 -5681 l0 -5674 -702 -1169 -703
-1168 -2815 -1 -2815 0 -3533 3533 -3532 3532 0 710 0 710 -960 718 -960 717
-9463 0 -9462 0 -948 -948 -947 -947 0 -13245 0 -13245 953 -720 952 -720
9459 3 9458 4 959 716 959 717 0 711 0 712 3531 3771 3532 3771 2816 0 2816
-1 700 -1174 700 -1175 5 -5683 5 -5682 1680 -3 1680 -2 717 717 718 718 0
17025 0 17025 -717 717 -718 718 -1676 0 c-922 0 -1679 -3 -1682 -7z m-30314
-5269 c192 -42 364 -176 445 -345 95 -199 95 -389 0 -588 -57 -120 -169 -232
-289 -289 -199 -95 -389 -95 -588 0 -120 57 -232 169 -289 289 -22 46 -47 116
-56 156 -25 114 -19 263 10 263 8 0 14 7 14 15 0 8 -4 15 -10 15 -5 0 -10 5
-10 10 0 6 7 10 15 10 18 0 20 26 3 33 -8 3 -5 6 6 6 14 1 17 6 13 23 -23 88
273 384 361 361 16 -4 22 -1 22 11 0 12 6 15 25 10 16 -4 25 -2 25 5 0 7 9 9
25 5 15 -4 25 -2 25 4 0 6 8 13 18 15 40 11 168 6 235 -9z m8500 0 c192 -42
364 -176 445 -345 95 -199 95 -389 0 -588 -57 -120 -169 -232 -289 -289 -199
-95 -389 -95 -588 0 -171 82 -303 254 -346 451 -20 92 -18 233 4 246 8 5 11
16 8 25 -4 10 -1 16 8 16 8 0 15 7 15 15 0 8 -4 15 -10 15 -5 0 -10 7 -10 15
0 8 7 15 16 15 12 0 15 6 11 22 -10 38 51 136 138 223 87 87 185 148 223 138
16 -4 22 -1 22 11 0 9 7 16 15 16 8 0 15 -4 15 -10 0 -5 7 -10 15 -10 8 0 15
6 15 14 0 9 7 12 20 9 11 -3 20 -1 20 5 0 6 8 13 18 15 40 11 168 6 235 -9z
m-8500 -25320 c192 -42 364 -176 445 -345 95 -199 95 -389 0 -588 -57 -120
-169 -232 -289 -289 -46 -22 -116 -47 -156 -56 -145 -32 -286 -14 -432 56
-120 57 -232 169 -289 289 -47 99 -72 201 -72 296 0 81 8 113 26 113 8 0 14 7
14 15 0 8 -4 15 -10 15 -5 0 -10 5 -10 10 0 6 7 10 15 10 8 0 15 7 15 15 0 8
-4 15 -10 15 -5 0 -10 5 -10 10 0 6 7 10 16 10 12 0 15 6 11 22 -23 88 273
384 361 361 16 -4 22 -1 22 12 0 13 6 15 30 10 18 -4 30 -2 30 3 0 6 9 8 20 5
11 -3 20 -1 20 5 0 6 8 13 18 15 40 11 168 6 235 -9z m8500 0 c40 -9 110 -34
156 -56 68 -32 101 -57 167 -122 65 -66 90 -99 122 -167 95 -199 95 -389 0
-588 -57 -120 -169 -232 -289 -289 -46 -22 -116 -47 -156 -56 -145 -32 -286
-14 -432 56 -120 57 -232 169 -289 289 -47 99 -72 201 -72 296 0 87 7 113 31
113 11 0 19 7 19 15 0 8 -7 15 -15 15 -8 0 -15 5 -15 10 0 6 7 10 15 10 8 0
15 7 15 15 0 8 -4 15 -10 15 -5 0 -10 5 -10 10 0 6 9 10 20 10 21 0 28 26 8
32 -7 3 1 27 23 69 63 119 261 289 338 289 12 0 21 5 21 10 0 6 7 10 15 10 8
0 15 -4 15 -10 0 -5 7 -10 15 -10 8 0 15 6 15 14 0 35 174 46 293 20z"/>
</g>
</svg>
